<svg width="240" height="200" viewBox="0 0 240 200" fill="none" xmlns="http://www.w3.org/2000/svg">
  <rect width="240" height="200" rx="12" fill="#F9FAFB"/>
  <rect x="30" y="30" width="180" height="140" rx="8" fill="white" stroke="#E5E7EB" stroke-width="2"/>
  
  <!-- Books -->
  <rect x="50" y="60" width="50" height="70" rx="4" fill="url(#gradient1)"/>
  <rect x="60" y="50" width="50" height="70" rx="4" fill="url(#gradient2)"/>
  <rect x="70" y="40" width="50" height="70" rx="4" fill="url(#gradient3)"/>
  
  <!-- Notebook with lines -->
  <rect x="140" y="40" width="60" height="80" rx="4" fill="white" stroke="#E5E7EB" stroke-width="2"/>
  <line x1="145" y1="55" x2="195" y2="55" stroke="#D1D5DB" stroke-width="1"/>
  <line x1="145" y1="65" x2="195" y2="65" stroke="#D1D5DB" stroke-width="1"/>
  <line x1="145" y1="75" x2="195" y2="75" stroke="#D1D5DB" stroke-width="1"/>
  <line x1="145" y1="85" x2="195" y2="85" stroke="#D1D5DB" stroke-width="1"/>
  <line x1="145" y1="95" x2="195" y2="95" stroke="#D1D5DB" stroke-width="1"/>
  <line x1="145" y1="105" x2="180" y2="105" stroke="#D1D5DB" stroke-width="1"/>
  
  <!-- Pencil -->
  <rect x="120" y="130" width="80" height="8" rx="4" fill="#F59E0B" transform="rotate(-30 120 130)"/>
  <polygon points="190,110 200,120 190,130" fill="#4B5563" transform="rotate(-30 190 110)"/>
  
  <!-- Defs for gradients -->
  <defs>
    <linearGradient id="gradient1" x1="50" y1="60" x2="100" y2="130" gradientUnits="userSpaceOnUse">
      <stop stop-color="#3B82F6"/>
      <stop offset="1" stop-color="#2563EB"/>
    </linearGradient>
    <linearGradient id="gradient2" x1="60" y1="50" x2="110" y2="120" gradientUnits="userSpaceOnUse">
      <stop stop-color="#8B5CF6"/>
      <stop offset="1" stop-color="#7C3AED"/>
    </linearGradient>
    <linearGradient id="gradient3" x1="70" y1="40" x2="120" y2="110" gradientUnits="userSpaceOnUse">
      <stop stop-color="#EC4899"/>
      <stop offset="1" stop-color="#DB2777"/>
    </linearGradient>
  </defs>
</svg> 