<svg width="240" height="200" viewBox="0 0 240 200" fill="none" xmlns="http://www.w3.org/2000/svg">
  <rect width="240" height="200" rx="12" fill="#F9FAFB"/>
  <rect x="30" y="30" width="180" height="140" rx="8" fill="white" stroke="#E5E7EB" stroke-width="2"/>
  
  <!-- Brain illustration -->
  <ellipse cx="120" cy="100" rx="60" ry="50" fill="#F3F4F6" stroke="#D1D5DB" stroke-width="2"/>
  
  <!-- Neural network nodes and connections -->
  <circle cx="100" cy="80" r="8" fill="url(#gradient-blue)"/>
  <circle cx="140" cy="80" r="8" fill="url(#gradient-purple)"/>
  <circle cx="120" cy="70" r="8" fill="url(#gradient-blue-purple)"/>
  <circle cx="90" cy="100" r="8" fill="url(#gradient-purple)"/>
  <circle cx="150" cy="100" r="8" fill="url(#gradient-blue)"/>
  <circle cx="120" cy="110" r="8" fill="url(#gradient-blue-purple)"/>
  <circle cx="100" cy="120" r="8" fill="url(#gradient-blue)"/>
  <circle cx="140" cy="120" r="8" fill="url(#gradient-purple)"/>
  
  <!-- Connections between nodes -->
  <line x1="100" y1="80" x2="120" y2="70" stroke="url(#gradient-line1)" stroke-width="2"/>
  <line x1="140" y1="80" x2="120" y2="70" stroke="url(#gradient-line2)" stroke-width="2"/>
  <line x1="90" y1="100" x2="100" y2="80" stroke="url(#gradient-line1)" stroke-width="2"/>
  <line x1="150" y1="100" x2="140" y2="80" stroke="url(#gradient-line2)" stroke-width="2"/>
  <line x1="100" y1="120" x2="90" y2="100" stroke="url(#gradient-line1)" stroke-width="2"/>
  <line x1="140" y1="120" x2="150" y2="100" stroke="url(#gradient-line2)" stroke-width="2"/>
  <line x1="100" y1="120" x2="120" y2="110" stroke="url(#gradient-line1)" stroke-width="2"/>
  <line x1="140" y1="120" x2="120" y2="110" stroke="url(#gradient-line2)" stroke-width="2"/>
  <line x1="90" y1="100" x2="120" y2="110" stroke="url(#gradient-line1)" stroke-width="2"/>
  <line x1="150" y1="100" x2="120" y2="110" stroke="url(#gradient-line2)" stroke-width="2"/>
  
  <!-- Pulse animations (static representation) -->
  <circle cx="120" cy="70" r="12" stroke="url(#gradient-blue-purple)" stroke-width="1" fill="none" opacity="0.3"/>
  <circle cx="120" cy="70" r="16" stroke="url(#gradient-blue-purple)" stroke-width="1" fill="none" opacity="0.2"/>
  <circle cx="120" cy="110" r="12" stroke="url(#gradient-blue-purple)" stroke-width="1" fill="none" opacity="0.3"/>
  <circle cx="120" cy="110" r="16" stroke="url(#gradient-blue-purple)" stroke-width="1" fill="none" opacity="0.2"/>
  
  <!-- Document with AI output -->
  <rect x="50" y="130" width="40" height="30" rx="4" fill="white" stroke="#E5E7EB" stroke-width="2"/>
  <line x1="55" y1="138" x2="85" y2="138" stroke="#D1D5DB" stroke-width="1"/>
  <line x1="55" y1="144" x2="75" y2="144" stroke="#D1D5DB" stroke-width="1"/>
  <line x1="55" y1="150" x2="80" y2="150" stroke="#D1D5DB" stroke-width="1"/>
  
  <!-- AI Generated document -->
  <rect x="150" y="130" width="40" height="30" rx="4" fill="white" stroke="#E5E7EB" stroke-width="2"/>
  <line x1="155" y1="138" x2="185" y2="138" stroke="#3B82F6" stroke-width="1"/>
  <line x1="155" y1="144" x2="175" y2="144" stroke="#8B5CF6" stroke-width="1"/>
  <line x1="155" y1="150" x2="180" y2="150" stroke="#3B82F6" stroke-width="1"/>
  
  <!-- Arrow showing transformation -->
  <path d="M100 145 L125 145 L125 140 L140 145 L125 150 L125 145" fill="#4B5563"/>
  
  <!-- Defs for gradients -->
  <defs>
    <linearGradient id="gradient-blue" x1="0" y1="0" x2="1" y2="1" gradientUnits="objectBoundingBox">
      <stop stop-color="#3B82F6"/>
      <stop offset="1" stop-color="#2563EB"/>
    </linearGradient>
    <linearGradient id="gradient-purple" x1="0" y1="0" x2="1" y2="1" gradientUnits="objectBoundingBox">
      <stop stop-color="#8B5CF6"/>
      <stop offset="1" stop-color="#7C3AED"/>
    </linearGradient>
    <linearGradient id="gradient-blue-purple" x1="0" y1="0" x2="1" y2="1" gradientUnits="objectBoundingBox">
      <stop stop-color="#3B82F6"/>
      <stop offset="1" stop-color="#8B5CF6"/>
    </linearGradient>
    <linearGradient id="gradient-line1" x1="0" y1="0" x2="1" y2="1" gradientUnits="objectBoundingBox">
      <stop stop-color="#3B82F6"/>
      <stop offset="1" stop-color="#8B5CF6"/>
    </linearGradient>
    <linearGradient id="gradient-line2" x1="0" y1="0" x2="1" y2="1" gradientUnits="objectBoundingBox">
      <stop stop-color="#8B5CF6"/>
      <stop offset="1" stop-color="#3B82F6"/>
    </linearGradient>
  </defs>
</svg> 