<svg width="240" height="200" viewBox="0 0 240 200" fill="none" xmlns="http://www.w3.org/2000/svg">
  <rect width="240" height="200" rx="12" fill="#F9FAFB"/>
  <rect x="30" y="30" width="180" height="140" rx="8" fill="white" stroke="#E5E7EB" stroke-width="2"/>
  
  <!-- Central document -->
  <rect x="95" y="60" width="50" height="70" rx="4" fill="white" stroke="#E5E7EB" stroke-width="2"/>
  <line x1="105" y1="75" x2="135" y2="75" stroke="#D1D5DB" stroke-width="1"/>
  <line x1="105" y1="85" x2="135" y2="85" stroke="#D1D5DB" stroke-width="1"/>
  <line x1="105" y1="95" x2="125" y2="95" stroke="#D1D5DB" stroke-width="1"/>
  <line x1="105" y1="105" x2="130" y2="105" stroke="#D1D5DB" stroke-width="1"/>
  <line x1="105" y1="115" x2="115" y2="115" stroke="#D1D5DB" stroke-width="1"/>
  
  <!-- User avatars -->
  <circle cx="60" cy="80" r="15" fill="url(#gradient-blue)"/>
  <circle cx="180" cy="80" r="15" fill="url(#gradient-purple)"/>
  <circle cx="60" cy="140" r="15" fill="url(#gradient-pink)"/>
  <circle cx="180" cy="140" r="15" fill="url(#gradient-orange)"/>
  
  <!-- User icons (simplified) -->
  <circle cx="60" cy="75" r="5" fill="white"/>
  <rect x="53" y="82" width="14" height="10" rx="5" fill="white"/>
  
  <circle cx="180" cy="75" r="5" fill="white"/>
  <rect x="173" y="82" width="14" height="10" rx="5" fill="white"/>
  
  <circle cx="60" cy="135" r="5" fill="white"/>
  <rect x="53" y="142" width="14" height="10" rx="5" fill="white"/>
  
  <circle cx="180" cy="135" r="5" fill="white"/>
  <rect x="173" y="142" width="14" height="10" rx="5" fill="white"/>
  
  <!-- Connection lines -->
  <line x1="75" y1="80" x2="95" y2="80" stroke="url(#gradient-blue-line)" stroke-width="2" stroke-dasharray="2 2"/>
  <line x1="165" y1="80" x2="145" y2="80" stroke="url(#gradient-purple-line)" stroke-width="2" stroke-dasharray="2 2"/>
  <line x1="75" y1="140" x2="95" y2="110" stroke="url(#gradient-pink-line)" stroke-width="2" stroke-dasharray="2 2"/>
  <line x1="165" y1="140" x2="145" y2="110" stroke="url(#gradient-orange-line)" stroke-width="2" stroke-dasharray="2 2"/>
  
  <!-- Shared cursors -->
  <circle cx="105" cy="85" r="3" fill="#3B82F6" stroke="white" stroke-width="1"/>
  <circle cx="125" cy="95" r="3" fill="#8B5CF6" stroke="white" stroke-width="1"/>
  <circle cx="115" cy="115" r="3" fill="#EC4899" stroke="white" stroke-width="1"/>
  <circle cx="130" cy="105" r="3" fill="#F59E0B" stroke="white" stroke-width="1"/>
  
  <!-- Chat bubbles -->
  <path d="M40 90 L60 100 L80 90 L80 120 L40 120 L40 90" fill="white" stroke="#E5E7EB" stroke-width="1"/>
  <path d="M160 90 L180 100 L200 90 L200 120 L160 120 L160 90" fill="white" stroke="#E5E7EB" stroke-width="1"/>
  
  <!-- Chat bubble content -->
  <line x1="50" y1="100" x2="70" y2="100" stroke="#3B82F6" stroke-width="1"/>
  <line x1="50" y1="110" x2="65" y2="110" stroke="#3B82F6" stroke-width="1"/>
  
  <line x1="170" y1="100" x2="190" y2="100" stroke="#8B5CF6" stroke-width="1"/>
  <line x1="170" y1="110" x2="185" y2="110" stroke="#8B5CF6" stroke-width="1"/>
  
  <!-- Defs for gradients -->
  <defs>
    <linearGradient id="gradient-blue" x1="0" y1="0" x2="1" y2="1" gradientUnits="objectBoundingBox">
      <stop stop-color="#3B82F6"/>
      <stop offset="1" stop-color="#2563EB"/>
    </linearGradient>
    <linearGradient id="gradient-purple" x1="0" y1="0" x2="1" y2="1" gradientUnits="objectBoundingBox">
      <stop stop-color="#8B5CF6"/>
      <stop offset="1" stop-color="#7C3AED"/>
    </linearGradient>
    <linearGradient id="gradient-pink" x1="0" y1="0" x2="1" y2="1" gradientUnits="objectBoundingBox">
      <stop stop-color="#EC4899"/>
      <stop offset="1" stop-color="#DB2777"/>
    </linearGradient>
    <linearGradient id="gradient-orange" x1="0" y1="0" x2="1" y2="1" gradientUnits="objectBoundingBox">
      <stop stop-color="#F59E0B"/>
      <stop offset="1" stop-color="#D97706"/>
    </linearGradient>
    <linearGradient id="gradient-blue-line" x1="0" y1="0" x2="1" y2="0" gradientUnits="objectBoundingBox">
      <stop stop-color="#3B82F6"/>
      <stop offset="1" stop-color="#60A5FA" stop-opacity="0.5"/>
    </linearGradient>
    <linearGradient id="gradient-purple-line" x1="0" y1="0" x2="1" y2="0" gradientUnits="objectBoundingBox">
      <stop stop-color="#8B5CF6"/>
      <stop offset="1" stop-color="#A78BFA" stop-opacity="0.5"/>
    </linearGradient>
    <linearGradient id="gradient-pink-line" x1="0" y1="0" x2="1" y2="0" gradientUnits="objectBoundingBox">
      <stop stop-color="#EC4899"/>
      <stop offset="1" stop-color="#F472B6" stop-opacity="0.5"/>
    </linearGradient>
    <linearGradient id="gradient-orange-line" x1="0" y1="0" x2="1" y2="0" gradientUnits="objectBoundingBox">
      <stop stop-color="#F59E0B"/>
      <stop offset="1" stop-color="#FBBF24" stop-opacity="0.5"/>
    </linearGradient>
  </defs>
</svg> 