<svg xmlns="http://www.w3.org/2000/svg" width="160" height="160" viewBox="0 0 160 160">
  <!-- Definitions -->
  <defs>
    <linearGradient id="cardGradient" x1="0%" y1="0%" x2="100%" y2="100%">
      <stop offset="0%" stop-color="#FB923C" />
      <stop offset="100%" stop-color="#EA580C" />
    </linearGradient>
    <linearGradient id="quizGradient" x1="0%" y1="0%" x2="100%" y2="100%">
      <stop offset="0%" stop-color="#F97316" />
      <stop offset="100%" stop-color="#C2410C" />
    </linearGradient>
    <filter id="shadow" x="-20%" y="-20%" width="140%" height="140%">
      <feDropShadow dx="0" dy="3" stdDeviation="3" flood-color="#0F172A" flood-opacity="0.15"/>
    </filter>
    <filter id="glow" x="-30%" y="-30%" width="160%" height="160%">
      <feGaussianBlur stdDeviation="2" result="blur" />
      <feComposite in="SourceGraphic" in2="blur" operator="over" />
    </filter>
  </defs>
  
  <!-- Background Circle -->
  <circle cx="80" cy="80" r="70" fill="#FFF7ED" />
  
  <!-- Flashcards Stack Animation -->
  <g transform="translate(55, 95)">
    <!-- Bottom cards in stack -->
    <rect x="-25" y="-20" width="50" height="40" rx="4" fill="#FFEDD5" stroke="#FB923C" stroke-width="1" />
    <rect x="-28" y="-25" width="50" height="40" rx="4" fill="#FFEDD5" stroke="#FB923C" stroke-width="1" />
    
    <!-- Main Flashcard -->
    <rect x="-30" y="-30" width="50" height="40" rx="4" fill="white" stroke="url(#cardGradient)" stroke-width="2" filter="url(#shadow)">
      <animate attributeName="transform" values="0,0;0,-5;0,0" attributeType="translate" dur="3s" repeatCount="indefinite" />
    </rect>
    
    <!-- Question Mark Side -->
    <g>
      <circle cx="-5" cy="-10" r="10" fill="#FED7AA" />
      <text x="-5" y="-6" font-family="Arial, sans-serif" font-weight="bold" font-size="14" fill="#C2410C" text-anchor="middle">?</text>
    </g>
    
    <!-- Card flip animation -->
    <g>
      <rect x="-30" y="-30" width="50" height="40" rx="4" fill="white" stroke="url(#cardGradient)" stroke-width="2" opacity="0">
        <animate attributeName="opacity" values="0;0;1;1;0" dur="6s" repeatCount="indefinite" />
        <animate attributeName="width" values="50;0;0;50;50" dur="6s" repeatCount="indefinite" />
        <animate attributeName="x" values="-30;-5;-5;-30;-30" dur="6s" repeatCount="indefinite" />
      </rect>
      
      <text x="-5" y="-10" font-family="Arial, sans-serif" font-weight="bold" font-size="10" fill="#C2410C" text-anchor="middle" opacity="0">
        <animate attributeName="opacity" values="0;0;1;1;0" dur="6s" repeatCount="indefinite" />
        <tspan x="-5" dy="-5">The Answer</tspan>
        <tspan x="-5" dy="10">is Here</tspan>
      </text>
    </g>
    
    <!-- Card Label -->
    <text x="-5" y="20" font-family="Arial, sans-serif" font-weight="bold" font-size="8" fill="#9A3412" text-anchor="middle">FLASHCARDS</text>
  </g>
  
  <!-- Quiz Animation -->
  <g transform="translate(105, 95)">
    <!-- Quiz Paper -->
    <rect x="-25" y="-40" width="50" height="60" rx="4" fill="white" stroke="url(#quizGradient)" stroke-width="2" filter="url(#shadow)" />
    
    <!-- Quiz Title -->
    <rect x="-20" y="-35" width="40" height="5" rx="1" fill="#FFEDD5" />
    
    <!-- Quiz Questions -->
    <g>
      <!-- Question 1 with animation -->
      <rect x="-20" y="-25" width="40" height="8" rx="2" fill="#FEF3C7" />
      <circle cx="-15" cy="-21" r="3" fill="white" stroke="#F97316" stroke-width="1" />
      <circle cx="-15" cy="-21" r="0" fill="#F97316">
        <animate attributeName="r" values="0;2;2" dur="6s" begin="1s" repeatCount="indefinite" />
      </circle>
      
      <!-- Question 2 with animation -->
      <rect x="-20" y="-12" width="40" height="8" rx="2" fill="#FEF3C7" />
      <circle cx="-15" cy="-8" r="3" fill="white" stroke="#F97316" stroke-width="1" />
      <circle cx="-15" cy="-8" r="0" fill="#F97316">
        <animate attributeName="r" values="0;0;2;2" dur="6s" begin="1s" repeatCount="indefinite" />
      </circle>
      
      <!-- Question 3 with animation -->
      <rect x="-20" y="1" width="40" height="8" rx="2" fill="#FEF3C7" />
      <circle cx="-15" cy="5" r="3" fill="white" stroke="#F97316" stroke-width="1" />
      <circle cx="-15" cy="5" r="0" fill="#F97316">
        <animate attributeName="r" values="0;0;0;2;2" dur="6s" begin="1s" repeatCount="indefinite" />
      </circle>
    </g>
    
    <!-- Progress Bar Animation -->
    <rect x="-20" y="15" width="40" height="4" rx="2" fill="#FFEDD5" />
    <rect x="-20" y="15" width="0" height="4" rx="2" fill="url(#quizGradient)">
      <animate attributeName="width" values="0;13;13;26;26;40" dur="6s" begin="1s" repeatCount="indefinite" />
    </rect>
    
    <!-- Card Label -->
    <text x="0" y="25" font-family="Arial, sans-serif" font-weight="bold" font-size="8" fill="#9A3412" text-anchor="middle">QUIZZES</text>
  </g>
  
  <!-- Connecting Elements -->
  <g>
    <!-- Center Badge -->
    <circle cx="80" cy="60" r="18" fill="url(#quizGradient)" filter="url(#glow)">
      <animate attributeName="r" values="18;20;18" dur="3s" repeatCount="indefinite" />
    </circle>
    <text x="80" y="64" font-family="Arial, sans-serif" font-weight="bold" font-size="10" fill="white" text-anchor="middle">Q&amp;F</text>
    
    <!-- Connection Lines -->
    <path d="M80,78 L80,95 M55,65 L70,60 M105,65 L90,60" stroke="#FB923C" stroke-width="2" stroke-dasharray="4 2">
      <animate attributeName="stroke-dashoffset" values="0;18" dur="2s" repeatCount="indefinite" />
    </path>
    
    <!-- Small Dots -->
    <circle cx="55" cy="65" r="3" fill="url(#cardGradient)" />
    <circle cx="105" cy="65" r="3" fill="url(#quizGradient)" />
    <circle cx="80" cy="95" r="3" fill="url(#cardGradient)" />
  </g>
  
  <!-- Learning Progress Stars with Animation -->
  <g>
    <path d="M40,40 L42,45 L48,45 L43,49 L45,55 L40,51 L35,55 L37,49 L32,45 L38,45 Z" fill="#FCD34D" opacity="0.8">
      <animate attributeName="opacity" values="0.8;1;0.8" dur="3s" begin="0.5s" repeatCount="indefinite" />
    </path>
    <path d="M120,40 L122,45 L128,45 L123,49 L125,55 L120,51 L115,55 L117,49 L112,45 L118,45 Z" fill="#FCD34D" opacity="0.8">
      <animate attributeName="opacity" values="0.8;1;0.8" dur="3s" begin="1.5s" repeatCount="indefinite" />
    </path>
    <path d="M60,25 L62,30 L68,30 L63,34 L65,40 L60,36 L55,40 L57,34 L52,30 L58,30 Z" fill="#FCD34D" opacity="0.8">
      <animate attributeName="opacity" values="0.8;1;0.8" dur="3s" begin="1s" repeatCount="indefinite" />
    </path>
    <path d="M100,25 L102,30 L108,30 L103,34 L105,40 L100,36 L95,40 L97,34 L92,30 L98,30 Z" fill="#FCD34D" opacity="0.8">
      <animate attributeName="opacity" values="0.8;1;0.8" dur="3s" begin="0s" repeatCount="indefinite" />
    </path>
  </g>
</svg> 